<?xml version="1.0" encoding="UTF-8" standalone="no"?>
<!-- Created with Inkscape (http://www.inkscape.org/) -->
<svg
   xmlns:dc="http://purl.org/dc/elements/1.1/"
   xmlns:cc="http://web.resource.org/cc/"
   xmlns:rdf="http://www.w3.org/1999/02/22-rdf-syntax-ns#"
   xmlns:svg="http://www.w3.org/2000/svg"
   xmlns="http://www.w3.org/2000/svg"
   xmlns:sodipodi="http://sodipodi.sourceforge.net/DTD/sodipodi-0.dtd"
   xmlns:inkscape="http://www.inkscape.org/namespaces/inkscape"
   width="421.51056"
   height="416.11227"
   id="svg2"
   inkscape:label="Pozadí"
   sodipodi:version="0.32"
   inkscape:version="0.45.1"
   sodipodi:docbase="/home/lubos"
   sodipodi:docname="mousetrap.svg"
   inkscape:output_extension="org.inkscape.output.svg.inkscape"
   version="1.0">
  <defs
     id="defs3" />
  <sodipodi:namedview
     id="base"
     pagecolor="#ff00ff"
     bordercolor="#666666"
     borderopacity="1.0"
     inkscape:pageopacity="0.60784314"
     inkscape:pageshadow="2"
     inkscape:zoom="0.69999999"
     inkscape:cx="545.92007"
     inkscape:cy="27.271696"
     inkscape:document-units="px"
     inkscape:current-layer="g2748"
     inkscape:window-width="1272"
     inkscape:window-height="940"
     inkscape:window-x="0"
     inkscape:window-y="0"
     width="524.40945px"
     height="744.09449px" />
  <metadata
     id="metadata6">
    <rdf:RDF>
      <cc:Work
         rdf:about="">
        <dc:format>image/svg+xml</dc:format>
        <dc:type
           rdf:resource="http://purl.org/dc/dcmitype/StillImage" />
      </cc:Work>
    </rdf:RDF>
  </metadata>
  <g
     inkscape:label="Vrstva 1"
     inkscape:groupmode="layer"
     id="layer1"
     transform="translate(-0.209954,0.406223)">
    <g
       id="g2748"
       transform="translate(-82.857143,-62.857146)">
      <path
         style="fill:#ffff8e;fill-opacity:1"
         d="M 391.56334,451.05996 C 397.63522,437.89746 408.14034,415.846 414.90805,402.05672 C 468.42678,293.01173 498.06019,228.88733 500.72492,216.35569 L 503.86338,201.59621 L 490.53341,198.80441 C 483.20193,197.26891 469.33126,194.18572 459.7097,191.95285 L 442.21596,187.89311 L 448.51726,143.40673 C 451.98297,118.93923 457.21027,95.531183 454.99477,93.717253 C 439.79313,81.271003 421.24076,74.682843 395.35106,62.450923 L 322.97618,74.022623 L 322.97618,119.08643 L 322.97618,164.15023 L 304.05831,161.78781 L 285.14045,159.42538 L 278.35377,168.44242 C 274.62109,173.40179 240.72163,207.94737 203.02163,245.21037 C 165.32164,282.47338 122.90914,324.4752 108.77164,338.54777 L 83.067097,364.13425 L 83.067097,377.65395 L 83.067097,391.17366 L 172.42099,417.43451 C 221.56563,431.87798 285.1909,450.73706 313.81048,459.34357 C 342.43007,467.95009 369.14852,474.99178 373.18483,474.99178 L 380.52357,474.99178 L 391.56334,451.05996 z "
         id="path2762"
         sodipodi:nodetypes="csccccccscccccccscccccsccc" />
      <path
         style="fill:#e6b64d"
         d="M 392.27763,452.48853 C 398.34951,439.32603 408.85463,417.27457 415.62234,403.48529 C 469.14107,294.4403 498.77448,230.3159 501.43921,217.78426 L 504.57767,203.02478 L 491.2477,200.23298 C 483.91622,198.69748 469.74777,195.53963 459.76225,193.21552 L 441.60677,188.98988 L 430.42056,191.74992 C 418.47103,192.55154 415.23522,194.4669 399.58007,198.36771 C 391.5015,200.29019 380.81792,203.4226 375.83877,205.32863 L 366.78579,208.79413 L 366.4824,201.63011 L 367.25046,191.96609 L 367.17961,185.86564 L 368.18018,178.69377 L 370.94347,144.07979 L 373.70676,109.46581 L 348.69861,92.28325 L 323.69047,75.1007 L 323.69047,120.33976 L 323.69047,165.5788 L 304.7726,163.21638 L 285.85474,160.85395 L 279.06806,169.87099 C 275.33538,174.83036 241.43592,209.37594 203.73592,246.63894 C 166.03593,283.90195 123.62343,325.90377 109.48593,339.97634 L 83.781383,365.56282 L 83.781383,379.08252 L 83.781383,392.60223 L 173.13528,418.86308 C 222.27992,433.30655 285.90519,452.16563 314.52477,460.77214 C 343.14436,469.37866 369.86281,476.42035 373.89912,476.42035 L 381.23786,476.42035 L 392.27763,452.48853 z M 425.99302,139.39722 C 429.05368,131.97132 424.94152,126.70934 418.82713,130.22762 C 413.2655,133.42785 413.39186,145.78922 418.98621,145.78922 C 421.39096,145.78922 424.54403,142.91282 425.99302,139.39722 z M 402.74186,179.5834 C 410.019,171.4197 405.74456,157.19803 396.84312,159.95745 C 389.06578,162.3684 385.92411,176.68521 391.94274,182.28876 L 396.52629,186.5562 L 402.74186,179.5834 z M 388.26704,148.37576 C 387.3021,145.68058 387.44998,142.97036 384.89176,142.97036 C 382.33355,142.97036 379.45097,145.1755 378.48603,147.87068 C 377.52108,150.56586 380.90118,154.82484 384.89176,152.77101 C 386.85448,151.76086 389.23198,151.07094 388.26704,148.37576 z M 387.21043,95.50415 C 386.08966,92.37022 381.50729,89.14425 377.02738,88.33532 L 368.88209,86.86455 L 371.8368,94.03337 C 375.31006,102.46033 390.20782,103.88558 387.21043,95.50415 z M 446.09306,109.46581 C 446.09306,105.7051 443.88981,102.62815 441.19696,102.62815 C 438.5041,102.62815 436.30085,105.7051 436.30085,109.46581 C 436.30085,113.22653 438.5041,116.30348 441.19696,116.30348 C 443.88981,116.30348 446.09306,113.22653 446.09306,109.46581 z "
         id="path2760"
         sodipodi:nodetypes="csccccccccccccccccccccccscccccsccccssccsccccssscccccccsssc" />
      <path
         style="fill:#d09d2a"
         d="M 329.64457,196.00208 C 320.42338,196.03631 308.62468,193.71743 302.80793,195.17022 L 304.35384,205.89287 L 308.7323,216.22578 C 312.52941,224.6868 322.20214,235.76071 322.20214,237.13057 C 322.20214,240.3437 280.45186,233.70165 263.52775,227.71087 L 250.3941,223.06184 L 203.29878,269.43179 C 148.76831,323.12237 131.95983,343.54545 135.41093,351.91865 C 138.09283,358.42557 178.34784,374.82577 210.72342,382.60153 L 230.97065,387.46438 L 233.52154,396.54626 C 234.92453,401.54129 234.78486,405.62814 233.21118,405.62814 C 230.62039,405.62814 136.37915,379.11993 103.57034,369.16272 L 90.106058,365.07642 L 90.106058,379.80113 L 90.106058,394.52583 L 172.11579,418.62247 C 217.22115,431.87562 281.49692,450.78403 314.95084,460.64115 C 348.40476,470.49828 377.15517,478.5632 378.84064,478.5632 C 380.52612,478.5632 384.86203,470.87083 388.47601,461.46905 C 392.08998,452.06726 403.67349,427.1645 414.21712,406.12958 C 473.47773,287.90263 511.32659,203.60212 500.40066,214.1736 C 499.10506,215.42717 485.22663,242.09405 469.55971,273.43334 C 431.61866,349.32861 383.31709,444.1162 381.91306,445.43219 C 380.84716,446.43125 307.11919,426.79307 263.37565,413.85856 L 243.24914,407.90736 L 248.18972,400.6276 L 253.13031,393.34783 L 300.14091,406.24608 C 357.10117,421.8742 359.97957,421.98558 372.52868,409.04697 C 386.35916,394.78721 435.87773,306.21642 439.95654,288.44292 L 443.31173,273.82263 L 427.05629,267.50564 C 418.1158,264.0313 402.51679,259.74434 392.39182,257.97906 L 373.98278,254.76946 L 378.7296,246.51165 C 381.34034,241.96985 393.48009,235.64614 405.70681,232.45896 C 425.3927,227.32737 439.10399,227.83918 425.0054,220.33918 C 422.628,219.07448 415.45985,213.33181 409.77719,208.04106 L 397.48079,199.49294 L 394.47862,200.26833 C 378.11133,207.21146 388.90568,202.47752 371.69118,205.25985 L 364.63852,205.19024 L 353.16397,203.12757 L 344.62466,196.29697 M 311.56475,391.80765 C 290.74461,386.71353 270.84812,381.61116 267.35031,380.46905 L 260.99069,378.39248 L 283.26265,348.72576 C 307.0252,317.07357 310.61496,309.54879 297.15773,319.5992 L 288.78084,325.85541 L 299.93918,311.04048 C 306.07626,302.89226 312.31889,296.22554 313.81168,296.22554 C 315.30446,296.22554 313.73885,299.35206 310.33253,303.17336 C 306.92621,306.99466 305.72006,311.593 307.6522,313.39188 C 309.58433,315.19077 313.32445,313.07026 315.96357,308.67964 L 320.76198,300.69669 L 331.50869,302.86069 C 390.3992,314.71914 403.88082,317.89314 406.765,320.57841 C 414.08002,327.38895 367.92461,401.0697 356.34331,401.0697 C 352.53523,401.0697 332.38488,396.90178 311.56475,391.80765 z M 195.5721,359.64007 L 148.60623,345.56109 L 164.26168,328.87059 C 172.87217,319.69081 189.26103,303.06221 200.68136,291.91813 L 221.44559,271.65617 L 227.99336,276.47464 C 235.08212,281.69123 249.2301,285.36305 279.10632,289.73996 C 289.6026,291.27768 298.93421,293.20375 299.84324,294.02012 C 301.53756,295.54174 246.82607,373.71905 244.06685,373.71905 C 243.22597,373.71905 221.40332,367.38351 195.5721,359.64007 z M 426.84487,138.04109 C 426.84487,132.87884 424.64163,129.92295 421.94877,131.47245 C 419.25591,133.02195 417.05266,137.24561 417.05266,140.85836 C 417.05266,144.47111 419.25591,147.427 421.94877,147.427 C 424.64163,147.427 426.84487,143.20334 426.84487,138.04109 z M 405.62591,179.64062 C 409.15946,171.06739 402.01029,160.70822 394.52371,165.01607 C 386.45345,169.65979 386.62675,186.78468 395.18359,186.78468 C 399.30739,186.78468 404.00644,183.56985 405.62591,179.64062 z M 388.76838,147.80717 C 388.76838,143.89849 386.56514,141.96825 383.87228,143.51775 C 381.17942,145.06725 378.97618,148.26526 378.97618,150.62444 C 378.97618,152.98362 381.17942,154.91386 383.87228,154.91386 C 386.56514,154.91386 388.76838,151.71585 388.76838,147.80717 z M 387.62885,95.626693 C 386.50808,92.492763 381.92571,89.266793 377.4458,88.457863 L 369.30051,86.987096 L 372.25522,94.155913 C 375.72848,102.58286 390.62624,104.00812 387.62885,95.626693 z M 447.52163,111.60866 C 447.52163,107.84795 445.31838,104.771 442.62553,104.771 C 439.93267,104.771 437.72942,107.84795 437.72942,111.60866 C 437.72942,115.36938 439.93267,118.44633 442.62553,118.44633 C 445.31838,118.44633 447.52163,115.36938 447.52163,111.60866 z "
         id="path2758"
         sodipodi:nodetypes="ccccscccscccscccccsscsssscccccsccccccssccccccccccccccssscccsscccccccsssccsssccssccssscccccccsssc" />
      <path
         style="fill:#936c27;fill-opacity:1"
         d="M 379.40948,472.26347 C 380.51364,470.28111 381.24987,463.58024 381.04555,457.37262 L 380.67405,446.08603 L 329.26496,431.75647 C 300.98996,423.87521 239.4564,406.71439 192.52372,393.6213 C 145.59104,380.52822 103.17854,369.09615 98.273723,368.21671 L 89.355883,366.61773 L 89.355883,379.03861 L 89.355883,391.45949 L 171.36561,415.53835 C 216.47097,428.78172 276.50944,446.41195 304.78444,454.71662 C 333.05944,463.0213 360.96542,471.17765 366.79772,472.84189 C 372.63003,474.50608 378.30532,474.2458 379.40948,472.26347 z M 382.28022,390.02608 C 405.68112,355.94506 443.31949,280.44584 440.41816,273.40654 C 438.97148,269.89655 423.49098,263.42166 406.01705,259.01789 L 374.24627,251.01104 L 386.02834,230.38022 C 392.50848,219.03326 397.81041,206.90579 397.81041,203.43028 L 397.81041,199.25402 L 387.46955,202.26375 C 381.78208,205.09768 371.91603,206.4886 365.54499,205.35469 L 353.96128,203.29303 L 350.74543,212.8982 C 346.76701,224.78097 340.94023,223.62507 327.32424,231.29153 C 321.90607,234.34221 320.01475,235.26475 317.63091,236.3214 C 311.60171,238.99386 284.40818,232.34008 263.31681,224.85124 L 248.77775,219.6889 L 240.41856,230.37281 C 235.82101,236.24896 213.09076,259.11925 189.9069,281.19567 C 166.72304,303.2721 144.10095,326.52598 139.63559,332.87098 L 131.51676,344.40733 L 139.67195,349.9593 C 144.15731,353.01288 167.68836,361.48221 191.96318,368.78004 L 236.09921,382.04881 L 233.39111,390.02608 L 230.68301,398.00336 L 237.83328,398.00336 C 241.76592,398.00336 246.14872,395.17635 247.57283,391.72113 L 250.16212,385.4389 L 300.35886,398.55879 C 327.96708,405.77473 354.34852,411.67868 358.9843,411.67868 C 363.68889,411.67868 373.98188,402.11176 382.28022,390.02608 z M 300.80265,386.96748 C 278.41624,381.02003 258.89356,375.03061 257.41892,373.65766 C 252.75812,369.3183 310.60318,288.60076 318.37373,288.60076 C 322.45505,288.60076 345.3028,293.11153 369.14652,298.62468 L 412.49872,308.6486 L 412.49872,314.64828 C 412.49872,320.95541 387.89607,364.11362 372.12764,385.46764 L 362.8709,398.00336 L 352.18806,397.89219 C 346.3125,397.83106 323.18906,392.91493 300.80265,386.96748 z M 200.22626,359.22324 C 178.29397,352.93703 157.39946,346.03655 153.79401,343.88883 L 147.23864,339.9839 L 163.58622,322.30513 C 182.84451,301.47863 193.8904,290.94756 215.25352,273.04593 L 230.98884,259.86023 L 237.28599,264.52629 C 240.74943,267.09263 255.701,271.88234 270.51172,275.1701 C 285.32243,278.45785 299.17181,282.48811 301.28811,284.12624 C 305.11782,287.09062 248.97863,370.65271 243.15736,370.65271 C 241.47754,370.65271 222.15854,365.50945 200.22626,359.22324 z M 356.24219,175.20725 C 359.44045,170.38924 350.96287,166.08311 346.7294,170.02461 C 342.64997,173.8227 346.53068,180.25934 352.3338,180.25934 C 354.95225,180.25934 354.76648,177.43032 356.24219,175.20725 z M 368.39269,144.80196 C 368.39269,142.29482 364.95779,140.24352 360.75958,140.24352 C 356.56137,140.24352 354.48815,142.29482 356.15243,144.80196 C 357.81671,147.3091 361.2516,149.3604 363.78554,149.3604 C 366.31947,149.3604 368.39269,147.3091 368.39269,144.80196 z M 339.05717,138.17219 C 339.05717,135.66505 336.72389,133.61375 333.87211,133.61375 C 331.02033,133.61375 330.04873,135.66505 331.71301,138.17219 C 333.37729,140.67934 335.71056,142.73063 336.89807,142.73063 C 338.08557,142.73063 339.05717,140.67934 339.05717,138.17219 z M 348.09294,108.82653 C 347.16255,104.64464 344.19808,101.33144 341.50522,101.46388 C 334.23799,101.82127 335.57308,112.01949 343.19684,114.38549 L 346.7541,113.3995 L 348.09294,108.82653 z "
         id="path2756"
         sodipodi:nodetypes="ccccscccccssccscccccccccsscccscccccccccccsccssccccccccccccccsssccssccsssccsssccsccc" />
      <path
         style="fill:#5d5154"
         d="M 374.26789,397.78724 C 393.70023,373.60899 436.30085,294.52271 436.30085,282.62564 C 436.30085,269.40256 428.75032,265.4106 388.38471,257.29243 L 357.60492,251.10212 L 367.35439,247.74428 C 377.39427,244.28643 399.98503,208.60907 395.04622,204.01087 C 393.52331,202.59299 386.78598,203.76237 380.07437,206.60949 C 373.36275,209.45661 364.81229,210.69313 361.07333,209.3573 L 354.27523,206.92853 L 351.21173,218.2927 C 349.5268,224.54299 343.45574,231.0435 337.72049,232.73826 L 332.84859,237.33487 L 326.13852,241.60161 C 318.05995,239.91001 307.04371,237.7628 301.658,236.83002 C 296.27229,235.89724 282.84002,232.83429 271.80853,230.02346 L 251.75126,224.91286 L 198.36697,275.84634 C 140.71835,330.84839 135.51502,337.05685 139.32303,346.29599 C 140.7002,349.63731 162.99916,358.93819 188.87627,366.96461 L 235.92559,381.5581 L 232.96511,390.24247 L 230.00462,398.92685 L 237.67871,398.92685 C 241.89947,398.92685 245.35281,395.8499 245.35281,392.08918 C 245.35281,383.20994 244.22094,383.08022 304.10605,398.82294 C 332.38105,406.25593 357.05545,412.39702 358.93805,412.46982 C 360.82065,412.54261 367.71908,405.93545 374.26789,397.78724 z M 301.658,389.47894 C 280.11514,384.08675 259.90607,378.36557 256.74895,376.76519 L 251.00872,373.85542 L 282.55949,329.13476 L 314.11027,284.41409 L 322.57245,286.73939 C 327.22664,288.01831 349.6,293.2906 372.29101,298.45559 C 394.98202,303.62058 414.51342,308.7459 415.69412,309.84517 C 418.86363,312.79609 378.45066,381.28494 366.46724,393.27115 C 360.8042,398.93552 352.7184,402.60541 348.49881,401.42646 C 344.27922,400.24751 323.20086,394.87112 301.658,389.47894 z M 148.61341,340.69123 C 147.59854,337.85658 164.63893,318.2065 186.48094,297.02439 L 226.19371,258.51146 L 240.21397,265.02334 C 247.92512,268.60486 265.4554,274.01688 279.17014,277.05004 C 292.88489,280.08321 304.10605,284.11494 304.10605,286.00944 C 304.10605,287.90395 290.8461,308.7036 274.63948,332.23088 L 245.17292,375.00776 L 197.81578,360.42645 C 171.76935,352.40673 149.62828,343.52588 148.61341,340.69123 z "
         id="path2754"
         sodipodi:nodetypes="cscccssccccccscccscccccssscccccccsssscccccsscccc" />
      <path
         style="fill:#383647"
         d="M 381.42809,385.34043 C 401.92801,356.18604 436.30085,290.08452 436.30085,279.81607 C 436.30085,275.4649 431.35727,270.44403 425.31512,268.65858 C 408.2376,263.61219 341.3623,248.70897 340.6976,249.80149 C 340.37101,250.33829 335.06882,257.56232 328.91496,265.85489 C 322.76109,274.14745 318.92641,282.04979 320.39343,283.41563 C 321.86045,284.78148 344.2037,290.54096 370.0451,296.21448 C 395.88649,301.88799 417.98723,307.42169 419.15785,308.51158 C 421.83564,311.00469 374.68158,389.77821 365.18724,398.67253 L 358.15978,405.25588 L 304.20434,391.43852 C 274.52886,383.83897 250.24891,379.17187 250.24891,381.06718 C 250.24891,382.96249 259.61271,386.53915 271.05735,389.01532 C 282.50199,391.49149 304.64196,396.78586 320.25727,400.78059 C 335.87258,404.77532 352.43224,408.04373 357.05651,408.04373 C 361.74051,408.04373 372.53456,397.98855 381.42809,385.34043 z M 238.46206,376.81768 C 237.04716,374.6862 219.84197,368.41801 200.2283,362.88835 C 180.61464,357.3587 159.47112,350.88258 153.2427,348.497 L 141.91831,344.15956 L 151.52202,331.65684 C 156.80406,324.78035 177.05842,304.25488 196.53169,286.04469 L 231.93764,252.93526 L 237.55533,260.08807 C 240.64506,264.02211 247.51915,267.99509 252.83109,268.91691 C 258.14304,269.83873 262.48917,270.90684 262.48917,271.29049 C 262.48917,272.08895 270.00931,273.6267 294.31384,277.7981 L 311.45021,280.73922 L 322.36367,264.82864 C 328.36608,256.07782 331.67095,248.02439 329.70783,246.93213 C 327.74471,245.83986 312.91904,241.70091 296.7619,237.73445 C 280.60475,233.76799 262.45474,229.20624 256.42853,227.59722 L 245.4718,224.67173 L 242.86905,230.88695 C 241.43753,234.30532 217.17504,259.20505 188.95241,286.21967 C 160.72977,313.2343 137.63852,338.11384 137.63852,341.50755 C 137.63852,347.99583 142.67492,350.20513 200.35564,369.01952 C 239.9833,381.94533 242.16181,382.39114 238.46206,376.81768 z M 386.11474,222.80604 L 396.09627,202.60556 L 385.59791,205.94416 C 379.82382,207.78038 370.14225,209.0924 364.08332,208.85975 C 358.02416,208.62709 353.06709,211.1288 353.06709,214.41937 C 353.06709,217.7098 351.8305,223.40223 350.31912,227.0692 L 347.57116,233.73641 L 361.85218,238.37147 L 376.13321,243.00652 L 386.11474,222.80604 z "
         id="path2752" />
      <path
         style="fill:#302d36"
         d="M 418.59632,296.84665 C 421.93939,284.44541 417.8015,270.12807 411.86206,273.5457 C 409.75649,274.75726 405.48461,272.88884 402.36899,269.39365 C 399.25337,265.89846 392.94479,263.5792 388.34994,264.23974 C 383.75508,264.90028 378.37696,263.16715 376.39856,260.38833 L 372.80145,255.33594 L 372.72648,261.59215 L 372.6515,267.84836 L 365.30735,262.1736 C 361.26806,259.05249 357.96319,258.02684 357.96319,259.89438 C 357.96319,261.76193 355.02837,261.02221 351.44136,258.25056 L 344.91953,253.21121 L 336.46419,258.96751 L 328.00885,264.72382 L 333.07263,277.12403 C 338.69638,290.89551 352.96919,294.02562 353.24058,281.54698 L 353.41408,273.56971 L 360.92291,284.96581 C 365.05277,291.23367 367.48029,293.28497 366.3174,289.52425 C 358.82635,265.29862 359.31815,262.30352 368.00157,279.26776 C 373.48514,289.98067 381.37364,298.64113 385.64807,298.64113 L 393.378,298.64113 L 390.81728,289.52425 C 389.40888,284.50997 390.48926,280.40737 393.21812,280.40737 C 395.94697,280.40737 396.86757,277.22388 395.26388,273.33295 C 393.66019,269.44202 394.38102,267.42831 396.86572,268.85803 C 399.35043,270.28776 400.11496,279.11232 398.5647,288.46817 C 397.01442,297.82401 397.50759,303.95812 399.66061,302.09951 C 401.81364,300.24091 406.27827,300.80886 409.58202,303.36164 L 415.58883,308.00304 L 418.59632,296.84665 z M 340.18739,264.3605 C 343.45579,256.43058 353.11445,259.28199 352.99211,268.14068 L 352.91714,273.56971 L 348.17098,266.73204 L 343.42483,259.89438 L 343.34986,268.6314 C 343.30862,273.43675 341.90107,276.08934 340.22197,274.52604 C 338.54287,272.96275 338.52731,268.38825 340.18739,264.3605 z M 431.00807,294.77279 C 433.9191,289.70859 436.12113,281.84054 435.90146,277.28821 L 435.50206,269.01126 L 428.31085,284.35649 C 420.40847,301.21927 422.54952,309.48773 431.00807,294.77279 z M 316.3557,266.69227 L 319.59117,252.97716 L 325.3129,256.17119 C 328.45984,257.92791 328.01079,255.89451 324.31499,251.65253 C 314.12939,239.96165 311.15776,242.19277 310.30196,262.1736 C 309.37444,283.82878 311.8731,285.69384 316.3557,266.69227 z M 302.93605,269.14921 C 301.6647,262.95723 302.50947,258.97569 304.81333,260.30135 C 307.11718,261.62702 309.00216,260.77854 309.00216,258.41584 C 309.00216,256.05315 304.42162,253.00481 298.8232,251.64176 L 288.64425,249.16347 L 291.47905,256.04136 C 293.03818,259.8242 294.31384,266.85408 294.31384,271.66331 C 294.31384,276.47254 296.77394,280.40737 299.78072,280.40737 L 305.2476,280.40737 L 302.93605,269.14921 z M 288.39272,262.1736 L 286.96969,246.21906 L 296.7619,247.54875 L 306.5541,248.87843 L 299.20995,244.19972 C 289.58858,238.07026 274.72943,238.07582 274.72943,244.20886 C 274.72943,246.86397 276.90744,247.78308 279.56945,246.25133 L 284.40947,243.46632 L 281.36172,250.8609 L 278.31397,258.25546 L 269.4727,245.70722 C 260.67665,233.22316 247.57799,227.78297 242.98283,234.70534 C 238.69372,241.16665 250.41879,265.21257 257.85851,265.21257 L 265.07911,265.21257 L 262.23018,256.85542 C 257.4553,242.84865 264.46005,247.54219 271.86794,263.31321 C 275.69528,271.46143 279.04021,275.0512 279.30111,271.29049 L 279.77548,264.45282 L 284.79561,271.29049 L 289.81574,278.12815 L 288.39272,262.1736 z M 384.89176,211.35248 L 399.58007,202.22376 L 387.33981,205.76356 C 380.60767,207.71046 370.14225,209.4042 364.08332,209.52745 C 358.02439,209.65069 353.06709,212.31565 353.06709,215.44958 C 353.06709,223.76159 368.02334,221.83613 384.89176,211.35248 z "
         id="path2750" />
      <text
         xml:space="preserve"
         style="font-size:12px;font-style:normal;font-weight:normal;fill:#000000;fill-opacity:1;stroke:none;stroke-width:1px;stroke-linecap:butt;stroke-linejoin:miter;stroke-opacity:1;font-family:Bitstream Vera Sans"
         x="199.02469"
         y="299.43451"
         id="text2176"><tspan
           sodipodi:role="line"
           id="tspan2178"
           x="199.02469"
           y="299.43451" /></text>
      <g
         id="g5120">
        <path
           sodipodi:nodetypes="czzzzzzzzzzz"
           id="path2192"
           d="M 192.84038,301.87683 C 194.7315,298.62402 208.09549,283.55508 217.24856,279.10806 C 226.40163,274.66104 226.60504,282.13204 229.45266,284.08873 C 232.30028,286.04542 230.67307,286.40119 228.63905,286.93483 C 226.60503,287.46847 224.97783,286.93483 221.3166,286.2233 C 217.65537,285.51177 217.85191,284.35879 215.00429,285.60396 C 212.15667,286.84913 208.0955,289.24728 209.92611,291.20397 C 211.75673,293.16066 218.46898,290.67032 221.3166,291.91549 C 224.16422,293.16066 224.77443,295.65099 221.3166,296.18464 C 217.85877,296.71828 212.77373,292.44914 207.48529,294.05007 C 202.19685,295.651 203.82406,300.63167 200.16283,302.58836 C 196.5016,304.54505 190.88865,305.23389 192.84038,301.87683 z "
           style="fill:#474747;fill-opacity:1;fill-rule:evenodd;stroke:#000000;stroke-width:0.75320816px;stroke-linecap:butt;stroke-linejoin:miter;stroke-opacity:1" />
        <path
           sodipodi:nodetypes="czzzzzzzzz"
           id="path2194"
           d="M 219.47284,308.9443 C 222.25076,303.89354 230.07945,296.3174 237.65559,291.77171 C 245.23174,287.22602 246.24189,288.74124 249.77742,290.76155 C 253.31295,292.78185 254.3231,293.79201 251.79772,299.85293 C 249.27234,305.91385 244.22157,311.97476 239.67589,315.00522 C 235.1302,318.03568 233.61498,314.50014 233.61498,311.97476 C 233.61498,309.44938 234.76041,308.82133 237.40305,306.41892 C 240.18096,303.89353 240.4335,304.90368 237.65559,301.36815 C 234.97126,297.95174 230.58452,309.19684 226.54391,311.97476 C 222.5033,314.75268 216.69492,313.99506 219.47284,308.9443 z "
           style="fill:#474747;fill-opacity:1;fill-rule:evenodd;stroke:#000000;stroke-width:1px;stroke-linecap:butt;stroke-linejoin:miter;stroke-opacity:1" />
        <path
           sodipodi:nodetypes="czzzzzzzzzz"
           id="path2196"
           d="M 261.92712,295.6955 C 266.66584,297.48973 274.72757,299.4235 278.99439,302.47369 C 283.26121,305.52388 279.49637,306.20169 278.99439,307.89624 C 278.49241,309.59079 279.49637,309.92969 276.98648,309.25187 C 274.47659,308.57405 273.22164,301.11805 268.95482,305.18496 C 264.688,309.25187 263.68405,321.45259 259.91921,325.5195 C 256.15437,329.58641 253.1425,326.53622 253.89547,321.45259 C 254.64844,316.36896 261.4838,310.76533 262.93108,305.18496 C 264.37835,299.60459 260.40746,301.60315 259.68457,299.13111 C 258.96168,296.65907 259.47888,296.15569 260.03952,295.29679 C 260.60016,294.43789 257.1884,293.90128 261.92712,295.6955 z "
           style="fill:#474747;fill-opacity:1;fill-rule:evenodd;stroke:#000000;stroke-width:1.15489388px;stroke-linecap:butt;stroke-linejoin:miter;stroke-opacity:1" />
        <path
           sodipodi:nodetypes="czzzzzzzzzzz"
           id="path2204"
           d="M 311.63468,311.08407 C 306.52452,316.9133 300.13682,329.58555 298.00759,336.42856 C 295.87835,343.27157 300.98851,341.24401 303.11774,338.45612 C 305.24698,335.66823 304.60822,324.7701 306.52453,325.27699 C 308.44084,325.78388 309.07959,336.42856 310.78298,340.48368 C 312.48636,344.5388 312.6993,342.76468 313.33807,341.49746 C 313.97684,340.23024 314.18976,339.46991 313.33807,335.41479 C 312.48638,331.35967 311.21876,328.56905 312.70922,326.0346 C 314.19968,323.50015 316.10607,326.79766 319.29992,325.27699 C 322.49377,323.75632 322.91961,322.23566 322.70669,319.19432 C 322.49377,316.15298 321.21623,315.13919 318.44823,313.11163 C 315.68023,311.08407 316.74484,305.25484 311.63468,311.08407 z "
           style="fill:#474747;fill-opacity:1;fill-rule:evenodd;stroke:#000000;stroke-width:1.30089271px;stroke-linecap:butt;stroke-linejoin:round;stroke-opacity:1" />
        <path
           sodipodi:nodetypes="czzzzzzzzz"
           id="path2206"
           d="M 316.73039,341.79813 C 319.25664,335.42295 326.37608,325.8602 333.26585,320.12254 C 340.15562,314.38488 341.07426,316.29742 344.28948,318.84749 C 347.5047,321.39756 348.42333,322.67261 346.12674,330.32282 C 343.83015,337.97304 339.23697,345.62324 335.10311,349.44835 C 330.96925,353.27346 329.5913,348.81083 329.5913,345.62324 C 329.5913,342.43565 334.64379,341.16061 335.10311,336.69799 C 335.56243,332.23536 334.16159,329.3295 331.17603,331.56081 C 328.19046,333.79212 326.8354,342.11689 323.16085,345.62324 C 319.48631,349.12959 314.20414,348.17331 316.73039,341.79813 z "
           style="fill:#474747;fill-opacity:1;fill-rule:evenodd;stroke:#000000;stroke-width:1.07138574px;stroke-linecap:butt;stroke-linejoin:round;stroke-opacity:1" />
        <path
           sodipodi:nodetypes="czzzzzzzzzz"
           id="path2208"
           d="M 351.19648,324.07812 C 355.9352,325.87235 363.99693,327.80612 368.26375,330.85631 C 372.53057,333.90649 368.76573,334.58432 368.26375,336.27886 C 367.76177,337.97341 368.76573,338.31231 366.25584,337.63449 C 363.74595,336.95667 362.491,329.50067 358.22418,333.56758 C 353.95736,337.63449 352.95341,349.83521 349.18857,353.90212 C 345.42373,357.96903 342.41186,354.91884 343.16483,349.83521 C 343.9178,344.75157 350.75317,339.14795 352.20044,333.56758 C 353.64772,327.98721 349.67682,329.98577 348.95393,327.51373 C 348.23104,325.04169 348.74824,324.53831 349.30888,323.67941 C 349.86952,322.82051 346.45776,322.2839 351.19648,324.07812 z "
           style="fill:#474747;fill-opacity:1;fill-rule:evenodd;stroke:#000000;stroke-width:1.15499997;stroke-linecap:butt;stroke-linejoin:round;stroke-miterlimit:4;stroke-dasharray:none;stroke-opacity:1" />
        <path
           sodipodi:nodetypes="czzzzzz"
           d="M 384.17499,327.54671 C 384.79369,328.29849 382.52033,331.05363 382.05383,331.99893 C 381.58733,332.94423 382.97083,332.36229 381.66919,333.32444 C 380.36755,334.28659 373.25043,337.78541 372.1536,337.9288 C 371.05677,338.07218 372.04967,337.42553 372.47166,336.4448 C 372.89365,335.46407 372.73189,333.88943 374.57462,332.0554 C 376.41735,330.22137 383.55629,326.79493 384.17499,327.54671 z "
           id="path9016"
           style="fill:#474747;fill-opacity:1;fill-rule:nonzero;stroke:#000000;stroke-width:1px;stroke-linecap:butt;stroke-linejoin:round;stroke-opacity:1" />
        <path
           sodipodi:nodetypes="czzzzzzzzzzzzzzzzzz"
           id="path9987"
           d="M 393.57142,345.93362 C 394.2857,343.61219 394.2857,341.11219 392.14285,338.79076 C 389.99999,336.46933 388.57143,336.46934 385,336.64791 C 381.42857,336.82648 379.64286,336.82648 377.85714,339.50505 C 376.07142,342.18362 377.14285,344.14791 378.57143,347.18362 C 380.034,350.29157 378.39286,348.25504 380,350.93362 C 381.52909,353.48211 380.89285,353.07648 379.82142,354.14791 C 378.74999,355.21934 377.67857,355.21934 375.71428,355.21934 C 373.74999,355.21934 374.46428,355.39791 372.85714,355.21934 C 371.25,355.04077 370.35714,353.43362 369.28571,354.50505 C 368.21428,355.57648 366.78571,357.54076 368.57142,359.50505 C 370.35714,361.46933 372.5,362.54076 376.42857,362.36219 C 380.35714,362.18362 381.60714,360.93362 384.28571,358.79076 C 386.96428,356.6479 387.32142,356.46933 387.14285,353.79076 C 386.96428,351.11219 384.82142,350.57648 383.57142,348.07648 C 382.32142,345.57648 381.42856,344.68362 382.14285,343.79076 C 382.85714,342.8979 384.64285,343.43362 386.42857,344.50505 C 388.21428,345.57648 387.5,347.71934 389.28571,348.07648 C 391.07142,348.43362 392.85714,348.25505 393.57142,345.93362 z "
           style="fill:#474747;fill-opacity:1;fill-rule:evenodd;stroke:#000000;stroke-width:1px;stroke-linecap:butt;stroke-linejoin:miter;stroke-opacity:1" />
      </g>
      <path
         style="fill:none;fill-opacity:1;fill-rule:evenodd;stroke:#a4770c;stroke-width:1px;stroke-linecap:butt;stroke-linejoin:miter;stroke-opacity:1"
         d="M 240.71428,103.07647 L 261.78571,132.71933 L 271.07143,140.21933"
         id="path3162"
         transform="translate(82.857143,62.857146)" />
    </g>
  </g>
</svg>
